<svg id="图层_1" data-name="图层 1" xmlns="http://www.w3.org/2000/svg" viewBox="0 0 512 512"><defs><style>.cls-1{fill:#fff;}</style></defs><path class="cls-1" d="M32,286.54V234.62H6v-9.16H67.08v9.16H41.21v51.92Z"/><path class="cls-1" d="M73.19,286.54V225.46h9.16v61.08Z"/><path class="cls-1" d="M91.59,286.54V225.46h11l23.67,28.16,23.58-28.16h11v61.08h-9.25V237.76L126.21,268l-25.45-30.2v48.78Z"/><path class="cls-1" d="M170.49,286.54V225.46h56v9.16H179.73v16.71h37.59v9.34H179.73v16.71h46.75v9.16Z"/><path class="cls-1" d="M235.55,225.46h47.51a10.81,10.81,0,0,1,5.51,1.48,11.09,11.09,0,0,1,4,4,10.69,10.69,0,0,1,1.49,5.56V249a11.71,11.71,0,0,1-.21,2.2,7.48,7.48,0,0,1-.72,2,24,24,0,0,1,2.58,4.45,10.5,10.5,0,0,1,.89,4.2v13.66a10.69,10.69,0,0,1-1.48,5.56,11,11,0,0,1-4,4,10.82,10.82,0,0,1-5.6,1.49h-50Zm11.29,25.36h36a1.92,1.92,0,0,0,1.44-.63,2.14,2.14,0,0,0,.59-1.49v-12a2.12,2.12,0,0,0-.59-1.48,1.89,1.89,0,0,0-1.44-.64h-36a2.17,2.17,0,0,0-2.12,2.12v12a2.15,2.15,0,0,0,2.12,2.12Zm0,26.56h38.43a2,2,0,0,0,1.52-.64,2.09,2.09,0,0,0,.6-1.48V262.11a2.11,2.11,0,0,0-.6-1.49,2,2,0,0,0-1.52-.63H246.84a2.15,2.15,0,0,0-2.12,2.12v13.15a2.17,2.17,0,0,0,2.12,2.12Z"/><path class="cls-1" d="M306.05,236.49a10.69,10.69,0,0,1,1.48-5.56,11.22,11.22,0,0,1,4-4,10.78,10.78,0,0,1,5.56-1.48H356a11.07,11.07,0,0,1,9.62,5.47,10.69,10.69,0,0,1,1.49,5.56v50.05h-9.25V265.16H315.21v21.38h-9.16ZM357.88,256V236.74a2.12,2.12,0,0,0-.59-1.48,2,2,0,0,0-1.53-.64H317.33a2.19,2.19,0,0,0-2.12,2.12V256Z"/><path class="cls-1" d="M376.8,286.54V225.46h10.94l40.89,48.69V225.46h9.25v61.08H426.94l-41-48.78v48.78Z"/><path class="cls-1" d="M447.47,286.54V225.46h9.24v25.87h16.88l21.72-25.87h10.61v1.7L481.74,256,506,284.84v1.7H495.31l-21.72-25.87H456.71v25.87Z"/></svg>